<svg xmlns="http://www.w3.org/2000/svg" xmlns:xlink="http://www.w3.org/1999/xlink" width="500" zoomAndPan="magnify" viewBox="0 0 375 374.999991" height="500" preserveAspectRatio="xMidYMid meet" version="1.0"><defs><clipPath id="16a183c632"><path d="M 187.5 0 C 83.945312 0 0 83.945312 0 187.5 C 0 291.054688 83.945312 375 187.5 375 C 291.054688 375 375 291.054688 375 187.5 C 375 83.945312 291.054688 0 187.5 0 " clip-rule="nonzero"/></clipPath><clipPath id="c898910a08"><path d="M 105 158 L 337.707031 158 L 337.707031 328.421875 L 105 328.421875 Z M 105 158 " clip-rule="nonzero"/></clipPath><clipPath id="1353861786"><path d="M 136 46.421875 L 332 46.421875 L 332 159 L 136 159 Z M 136 46.421875 " clip-rule="nonzero"/></clipPath><clipPath id="571f53f651"><path d="M 37.707031 65 L 137 65 L 137 294 L 37.707031 294 Z M 37.707031 65 " clip-rule="nonzero"/></clipPath></defs><g clip-path="url(#16a183c632)"><rect x="-37.5" width="450" fill="#ffffff" y="-37.499999" height="449.999989" fill-opacity="1"/></g><g clip-path="url(#c898910a08)"><path fill="#0293d6" d="M 105.890625 293.972656 C 108.109375 296.496094 110.449219 298.90625 112.90625 301.199219 C 115.363281 303.492188 117.929688 305.660156 120.601562 307.699219 C 123.273438 309.738281 126.039062 311.640625 128.902344 313.40625 C 131.761719 315.171875 134.703125 316.792969 137.726562 318.265625 C 140.75 319.742188 143.835938 321.0625 146.988281 322.234375 C 150.140625 323.402344 153.34375 324.414062 156.597656 325.265625 C 159.851562 326.117188 163.136719 326.808594 166.460938 327.335938 C 169.78125 327.863281 173.121094 328.226562 176.480469 328.421875 C 180.464844 328.210938 184.398438 327.632812 188.277344 326.6875 C 192.152344 325.742188 195.910156 324.449219 199.546875 322.804688 C 203.183594 321.160156 206.636719 319.195312 209.90625 316.90625 C 213.175781 314.617188 216.203125 312.046875 218.992188 309.195312 C 241.207031 290.191406 264.46875 272.566406 288.777344 256.320312 L 302.414062 250.710938 C 308.027344 248.308594 317.65625 242.699219 326.476562 232.285156 C 336.105469 219.46875 337.707031 205.847656 337.707031 201.042969 C 337.175781 193.460938 335.683594 186.074219 333.238281 178.878906 C 330.792969 171.683594 327.46875 164.917969 323.269531 158.582031 C 320.542969 163.433594 317.667969 168.191406 314.644531 172.863281 C 311.617188 177.535156 308.449219 182.105469 305.136719 186.578125 C 301.824219 191.050781 298.375 195.414062 294.789062 199.671875 C 291.203125 203.925781 287.488281 208.066406 283.640625 212.089844 C 279.792969 216.113281 275.824219 220.011719 271.734375 223.789062 C 267.644531 227.5625 263.4375 231.203125 259.117188 234.714844 C 254.796875 238.226562 250.371094 241.597656 245.839844 244.832031 C 241.308594 248.066406 236.679688 251.15625 231.953125 254.097656 C 227.226562 257.042969 222.414062 259.835938 217.511719 262.476562 C 212.609375 265.117188 207.628906 267.605469 202.570312 269.933594 C 197.515625 272.265625 192.386719 274.433594 187.195312 276.441406 C 182 278.449219 176.75 280.296875 171.4375 281.972656 C 166.128906 283.652344 160.773438 285.164062 155.367188 286.507812 C 149.960938 287.851562 144.519531 289.027344 139.042969 290.03125 C 133.5625 291.03125 128.058594 291.863281 122.527344 292.519531 C 117 293.179688 111.453125 293.664062 105.890625 293.972656 Z M 105.890625 293.972656 " fill-opacity="1" fill-rule="nonzero"/></g><g clip-path="url(#1353861786)"><path fill="#ebe638" d="M 136.371094 66.449219 C 139.367188 63.292969 142.648438 60.46875 146.21875 57.976562 C 149.789062 55.484375 153.574219 53.378906 157.570312 51.65625 C 161.570312 49.933594 165.703125 48.632812 169.96875 47.75 C 174.230469 46.871094 178.542969 46.425781 182.894531 46.421875 C 185.65625 46.238281 188.40625 46.324219 191.148438 46.6875 C 193.886719 47.050781 196.566406 47.675781 199.183594 48.570312 C 201.800781 49.464844 204.304688 50.609375 206.691406 52 C 209.082031 53.390625 211.308594 55.003906 213.378906 56.835938 C 219.097656 60.882812 225.085938 64.480469 231.347656 67.625 C 237.613281 70.769531 244.074219 73.429688 250.738281 75.601562 C 257.398438 77.777344 264.1875 79.4375 271.101562 80.589844 C 278.015625 81.742188 284.976562 82.367188 291.984375 82.472656 C 299.207031 83.273438 313.644531 85.675781 323.269531 97.695312 C 330.488281 107.308594 331.289062 117.722656 331.289062 122.53125 C 330.640625 134.996094 327.964844 147.011719 323.269531 158.582031 Z M 136.371094 66.449219 " fill-opacity="1" fill-rule="nonzero"/></g><g clip-path="url(#571f53f651)"><path fill="#bad147" d="M 105.890625 293.972656 C 98.671875 293.171875 89.046875 290.769531 77.816406 285.960938 C 66.585938 281.15625 52.949219 275.546875 44.128906 260.324219 C 38.511719 250.710938 37.710938 241.097656 37.710938 234.6875 C 37.808594 226.191406 38.871094 217.816406 40.90625 209.5625 C 42.9375 201.308594 45.882812 193.394531 49.742188 185.820312 C 57.457031 167.011719 62.535156 147.515625 64.984375 127.335938 L 68.992188 111.3125 C 71.398438 103.300781 73.003906 95.292969 78.617188 87.28125 L 87.441406 77.667969 C 91.058594 75.394531 94.84375 73.441406 98.789062 71.804688 C 102.734375 70.167969 106.792969 68.871094 110.957031 67.917969 C 115.121094 66.964844 119.335938 66.363281 123.601562 66.117188 C 127.867188 65.871094 132.125 65.980469 136.371094 66.449219 C 133.519531 70.523438 130.792969 74.679688 128.191406 78.914062 C 125.589844 83.152344 123.113281 87.460938 120.769531 91.84375 C 118.421875 96.226562 116.210938 100.675781 114.128906 105.191406 C 112.050781 109.707031 110.105469 114.28125 108.300781 118.910156 C 106.492188 123.542969 104.828125 128.222656 103.300781 132.953125 C 101.773438 137.683594 100.386719 142.453125 99.144531 147.265625 C 97.902344 152.078125 96.804688 156.925781 95.851562 161.804688 C 94.902344 166.683594 94.09375 171.585938 93.433594 176.511719 C 92.773438 181.4375 92.261719 186.378906 91.898438 191.335938 C 91.53125 196.292969 91.316406 201.253906 91.246094 206.222656 C 91.179688 211.195312 91.257812 216.160156 91.488281 221.125 C 91.714844 226.089844 92.089844 231.042969 92.617188 235.988281 C 93.140625 240.929688 93.8125 245.851562 94.628906 250.753906 C 95.449219 255.65625 96.410156 260.53125 97.519531 265.375 C 98.628906 270.222656 99.882812 275.027344 101.277344 279.800781 C 102.675781 284.570312 104.210938 289.292969 105.890625 293.972656 Z M 105.890625 293.972656 " fill-opacity="1" fill-rule="nonzero"/></g><path fill="#78b650" d="M 136.371094 66.449219 C 135.570312 66.449219 179.6875 68.855469 206.960938 78.46875 L 229.417969 88.082031 C 220.597656 87.28125 164.445312 84.875 121.933594 127.335938 C 68.191406 181.8125 85.839844 256.320312 86.640625 260.324219 C 83.550781 256.445312 80.839844 252.320312 78.503906 247.945312 C 76.167969 243.574219 74.246094 239.023438 72.738281 234.304688 C 71.230469 229.582031 70.164062 224.761719 69.535156 219.84375 C 68.902344 214.929688 68.722656 209.996094 68.992188 205.046875 C 69.257812 198.441406 69.859375 191.867188 70.800781 185.324219 C 71.742188 178.777344 73.019531 172.300781 74.632812 165.890625 C 76.242188 159.476562 78.179688 153.164062 80.445312 146.953125 C 82.707031 140.738281 85.285156 134.660156 88.175781 128.714844 C 91.066406 122.765625 94.257812 116.984375 97.746094 111.367188 C 101.234375 105.746094 105 100.324219 109.050781 95.09375 C 113.097656 89.863281 117.40625 84.855469 121.972656 80.066406 C 126.539062 75.28125 131.335938 70.742188 136.371094 66.449219 Z M 136.371094 66.449219 " fill-opacity="1" fill-rule="nonzero"/><path fill="#2f8260" d="M 243.859375 264.332031 C 245.742188 260.910156 247.5 257.425781 249.128906 253.875 C 250.757812 250.328125 252.253906 246.722656 253.621094 243.0625 C 254.984375 239.40625 256.214844 235.703125 257.308594 231.953125 C 258.402344 228.207031 259.359375 224.421875 260.175781 220.605469 C 260.996094 216.785156 261.671875 212.945312 262.207031 209.074219 C 262.742188 205.207031 263.136719 201.328125 263.390625 197.429688 C 263.640625 193.535156 263.75 189.632812 263.71875 185.730469 C 263.683594 181.824219 263.507812 177.925781 263.1875 174.035156 C 262.871094 170.144531 262.410156 166.269531 261.808594 162.414062 C 261.203125 158.554688 260.460938 154.722656 259.578125 150.921875 C 258.695312 147.117188 257.675781 143.351562 256.519531 139.621094 C 255.359375 135.894531 254.066406 132.210938 252.636719 128.578125 C 251.210938 124.941406 249.652344 121.363281 247.960938 117.84375 C 246.273438 114.324219 244.457031 110.867188 242.511719 107.480469 C 240.570312 104.089844 238.507812 100.777344 236.320312 97.542969 C 234.136719 94.304688 231.835938 91.152344 229.417969 88.082031 C 235.191406 89.042969 240.851562 90.460938 246.394531 92.328125 C 251.941406 94.191406 257.300781 96.488281 262.480469 99.210938 C 267.660156 101.929688 272.585938 105.046875 277.265625 108.554688 C 281.949219 112.0625 286.320312 115.921875 290.382812 120.125 C 300.007812 128.136719 312.039062 140.15625 323.269531 158.582031 C 319.324219 169.046875 314.660156 179.183594 309.273438 188.988281 C 303.886719 198.792969 297.835938 208.167969 291.117188 217.113281 C 284.398438 226.058594 277.082031 234.488281 269.164062 242.398438 C 261.25 250.308594 252.8125 257.617188 243.859375 264.332031 Z M 243.859375 264.332031 " fill-opacity="1" fill-rule="nonzero"/><path fill="#085229" d="M 269.527344 123.332031 C 256.691406 101.699219 238.242188 92.085938 230.222656 88.082031 C 223.804688 86.480469 163.644531 76.863281 117.921875 120.925781 C 81.023438 156.175781 78.617188 201.84375 78.617188 210.65625 C 78.660156 218.152344 79.316406 225.59375 80.582031 232.984375 C 81.847656 240.375 83.707031 247.613281 86.164062 254.699219 C 88.617188 261.78125 91.636719 268.621094 95.214844 275.210938 C 98.792969 281.800781 102.886719 288.054688 107.496094 293.972656 C 119.417969 296.265625 131.449219 297.414062 143.589844 297.414062 C 155.734375 297.414062 167.765625 296.265625 179.6875 293.972656 C 191.71875 291.570312 219.792969 286.761719 243.859375 265.933594 C 247.066406 262.730469 282.359375 229.882812 284.765625 177.808594 C 284.765625 168.996094 284.765625 146.5625 269.527344 123.332031 Z M 240.648438 239.496094 C 238.792969 241.511719 236.835938 243.429688 234.78125 245.246094 C 232.722656 247.058594 230.578125 248.765625 228.347656 250.355469 C 226.113281 251.949219 223.804688 253.425781 221.417969 254.777344 C 219.03125 256.132812 216.582031 257.359375 214.070312 258.460938 C 211.554688 259.558594 208.992188 260.527344 206.378906 261.363281 C 203.765625 262.199219 201.113281 262.894531 198.429688 263.457031 C 195.742188 264.015625 193.035156 264.4375 190.304688 264.714844 C 187.574219 264.996094 184.839844 265.136719 182.09375 265.132812 C 177.28125 265.132812 145.195312 264.332031 122.734375 237.894531 C 119.527344 233.886719 103.484375 214.660156 104.289062 185.820312 C 105.890625 147.363281 136.371094 124.933594 142.789062 120.125 C 148.40625 116.121094 162.039062 107.308594 182.09375 106.507812 C 186.90625 105.707031 203.75 104.90625 220.597656 114.519531 C 257.496094 134.546875 259.097656 182.613281 259.097656 185.820312 C 259.097656 194.632812 259.097656 218.667969 240.648438 239.496094 Z M 240.648438 239.496094 " fill-opacity="1" fill-rule="nonzero"/></svg>