<svg width="29" height="29" viewBox="0 0 29 29" fill="none"
    xmlns="http://www.w3.org/2000/svg">
    <g clip-path="url(#clip0_334_280)">
        <path
            d="M14.5 29C22.5081 29 29 22.5081 29 14.5C29 6.49187 22.5081 0 14.5 0C6.49187 0 0 6.49187 0 14.5C0 22.5081 6.49187 29 14.5 29Z"
            fill="#2D374B" />
        <path
            d="M13.5333 4.12028C14.1315 3.78217 14.8687 3.78217 15.467 4.12028L23.2003 8.49075C23.7983 8.82874 24.1667 9.45326 24.1667 10.1292V18.8709C24.1667 19.5468 23.7983 20.1713 23.2003 20.5093L15.467 24.8798C14.8687 25.2179 14.1315 25.2179 13.5333 24.8798L5.79997 20.5093C5.20194 20.1713 4.8335 19.5468 4.8335 18.8709V10.1292C4.8335 9.45326 5.20194 8.82874 5.79997 8.49075L13.5333 4.12028Z"
            fill="#96BEDC" />
        <path
            d="M14.2097 5.25388C14.4091 5.14112 14.655 5.14112 14.8544 5.25388L22.5071 9.5801C22.7064 9.69277 22.8292 9.90094 22.8292 10.1262V18.7792C22.8292 19.0045 22.7064 19.2126 22.5071 19.3253L14.8544 23.6515C14.655 23.7643 14.4091 23.7643 14.2097 23.6515L6.55696 19.3253C6.35768 19.2126 6.23486 19.0045 6.23486 18.7792V10.1262C6.23486 9.90094 6.35768 9.69277 6.55696 9.5801L14.2097 5.25388Z"
            fill="#2D374B" />
        <path
            d="M6.95572 21.1625L5.5759 20.3827C5.11716 20.1234 4.8335 19.6373 4.8335 19.1104L10.0173 11.3477C10.5827 10.5011 11.5464 9.99084 12.5798 9.99084H14.0731L6.95572 21.1625Z"
            fill="white" />
        <path d="M10.2497 23.0243L7.76807 21.6217L14.9993 9.99084H18.1329L10.2497 23.0243Z"
            fill="white" />
        <path fill-rule="evenodd" clip-rule="evenodd"
            d="M20.326 20.5584L17.5755 22.1134L14.5806 17.5272L16.4172 14.5158L20.326 20.5584ZM22.8295 17.4475V18.7792C22.8295 19.0045 22.7067 19.2126 22.5074 19.3253L21.1099 20.1153L16.9489 13.5777L18.5439 10.9604L22.8295 17.4475Z"
            fill="#28A0F0" />
    </g>
    <defs>
        <clipPath id="clip0_334_280">
            <rect width="29" height="29" fill="white" />
        </clipPath>
    </defs>
</svg>