<svg width="29" height="29" viewBox="0 0 29 29" fill="none" xmlns="http://www.w3.org/2000/svg">
    <g clip-path="url(#clip0_334_288)">
        <path
            d="M14.5 29C22.5081 29 29 22.5081 29 14.5C29 6.49187 22.5081 0 14.5 0C6.49187 0 0 6.49187 0 14.5C0 22.5081 6.49187 29 14.5 29Z"
            fill="#D64F4A" />
        <path fill-rule="evenodd" clip-rule="evenodd"
            d="M10.857 20.5417H8.02328C7.35139 20.5417 7.01543 20.5417 6.81427 20.4091C6.59681 20.2659 6.45964 20.0254 6.44509 19.7622C6.43161 19.5185 6.59802 19.2215 6.9308 18.6275L6.93094 18.6273L13.1353 7.55196C13.473 6.94915 13.6418 6.64769 13.8567 6.53551C14.0888 6.41429 14.364 6.4141 14.5962 6.53498C14.8113 6.64682 14.9805 6.94804 15.319 7.55032L16.75 10.096L16.7501 10.0961C16.9962 10.534 17.1193 10.753 17.1735 10.9841C17.2324 11.2356 17.2325 11.4977 17.1738 11.7492C17.1199 11.9803 16.9969 12.1994 16.7511 12.6376L13.041 19.251C12.7916 19.6957 12.6669 19.918 12.4959 20.0842C12.31 20.265 12.0844 20.3983 11.8379 20.4731C11.6114 20.5417 11.36 20.5417 10.857 20.5417ZM20.967 20.5417H17.6816C17.0037 20.5417 16.6646 20.5417 16.4628 20.408C16.2447 20.2634 16.108 20.0212 16.0951 19.7567C16.0831 19.5119 16.2538 19.2136 16.595 18.6172L18.2349 15.7502C18.5719 15.1613 18.7404 14.8668 18.9536 14.7565C19.1841 14.6373 19.4567 14.6371 19.6874 14.756C19.9008 14.866 20.0696 15.1602 20.4073 15.7485L20.4074 15.7487L22.0528 18.6156C22.3953 19.2124 22.5666 19.5108 22.5549 19.7558C22.5422 20.0206 22.4055 20.263 22.1874 20.4078C21.9855 20.5417 21.646 20.5417 20.967 20.5417Z"
            fill="white" />
    </g>
    <defs>
        <clipPath id="clip0_334_288">
            <rect width="29" height="29" fill="white" />
        </clipPath>
    </defs>
</svg>