<svg width="29" height="29" viewBox="0 0 29 29" fill="none" xmlns="http://www.w3.org/2000/svg">
    <path
        d="M14.5 29C22.5081 29 29 22.5081 29 14.5C29 6.49187 22.5081 0 14.5 0C6.49187 0 0 6.49187 0 14.5C0 22.5081 6.49187 29 14.5 29Z"
        fill="#0A15EE" />
    <path
        d="M13.6154 4.61393C14.1117 4.36957 14.8668 4.36957 15.363 4.61393L20.4269 7.10737C20.7257 7.25455 20.8899 7.47384 20.9193 7.70023H20.9241V20.2336C20.9176 20.4805 20.7519 20.7258 20.4269 20.8859L15.363 23.3793C14.8668 23.6237 14.1117 23.6237 13.6154 23.3793L8.55162 20.8859C8.22798 20.7265 8.07269 20.4795 8.065 20.2336C8.06423 20.2094 8.06413 20.1892 8.06486 20.1725V7.78075C8.06432 7.76717 8.06428 7.75359 8.06471 7.7401L8.065 7.70023H8.06727C8.08975 7.47137 8.24644 7.25764 8.55162 7.10737L13.6154 4.61393ZM20.127 14.6926L15.363 17.0383C14.8668 17.2827 14.1117 17.2827 13.6154 17.0383L8.86192 14.6978V20.2088L13.6154 22.5371C13.8839 22.6709 14.1624 22.8012 14.4349 22.8178L14.4892 22.8194C14.7731 22.8203 15.0487 22.6859 15.3281 22.5588L20.127 20.1888V14.6926ZM7.24135 19.9611C7.24135 20.4412 7.30124 20.7569 7.42009 20.9793C7.51859 21.1636 7.66644 21.3044 7.93634 21.4759L7.95176 21.4856C8.01096 21.5228 8.07621 21.5618 8.15563 21.6075L8.2493 21.661L8.53693 21.8229L8.1244 22.4588L7.8025 22.2775L7.74837 22.2465C7.65528 22.1928 7.57814 22.147 7.50617 22.1017C6.73695 21.6182 6.45004 21.0911 6.44438 19.9945L6.44434 19.9611H7.24135ZM14.0906 11.3332C14.0537 11.345 14.0192 11.3587 13.9877 11.3742L8.92384 13.8677C8.91857 13.8703 8.91349 13.8728 8.90866 13.8754L8.90436 13.8777L8.91233 13.882L8.92384 13.8878L13.9877 16.3813C14.0192 16.3968 14.0537 16.4104 14.0906 16.4222V11.3332ZM14.8879 11.3332V16.4222C14.9248 16.4104 14.9593 16.3968 14.9908 16.3813L20.0546 13.8878C20.0599 13.8852 20.065 13.8826 20.0698 13.88L20.0741 13.8777L20.0662 13.8735L20.0546 13.8677L14.9908 11.3742C14.9593 11.3587 14.9248 11.345 14.8879 11.3332ZM20.127 8.58932L15.5844 10.8261L20.127 13.0629V8.58932ZM8.86192 8.59454V13.0576L13.3939 10.8261L8.86192 8.59454ZM14.9908 5.271C14.7275 5.14132 14.251 5.14132 13.9877 5.271L8.92384 7.76446C8.91857 7.76707 8.91349 7.76968 8.90866 7.7722L8.90436 7.77452L8.91233 7.77877L8.92384 7.78462L13.9877 10.2781C14.251 10.4078 14.7275 10.4078 14.9908 10.2781L20.0546 7.78462C20.0599 7.78201 20.065 7.7794 20.0698 7.77684L20.0741 7.77452L20.0662 7.77031L20.0546 7.76446L14.9908 5.271ZM20.8753 5.54442L21.1973 5.72572L21.2513 5.75665C21.3444 5.81025 21.4216 5.85626 21.4935 5.90146C22.2628 6.38498 22.5497 6.91211 22.5552 8.00864L22.5554 8.04204H21.7584C21.7584 7.56185 21.6985 7.24623 21.5796 7.02385C21.4811 6.83956 21.3333 6.69871 21.0634 6.52732L21.048 6.51761C20.9888 6.48039 20.9235 6.44139 20.8441 6.39552L20.7504 6.34206L20.4628 6.18024L20.8753 5.54442Z"
        fill="white" />
</svg>