<svg width="29" height="29" viewBox="0 0 29 29" fill="none" xmlns="http://www.w3.org/2000/svg">
    <g clip-path="url(#clip0_334_296)">
        <path
            d="M14.5 29C22.5081 29 29 22.5081 29 14.5C29 6.49187 22.5081 0 14.5 0C6.49187 0 0 6.49187 0 14.5C0 22.5081 6.49187 29 14.5 29Z"
            fill="#037A5B" />
        <path fill-rule="evenodd" clip-rule="evenodd"
            d="M6.22168 8.05052L14.5344 16.1333L22.7432 8.21867L22.4302 7.88237C20.396 5.69325 17.4735 4.43054 14.4305 4.43054H14.4128C11.404 4.43054 8.60432 5.60969 6.55238 7.71417L6.22168 8.05052ZM14.5355 14.8031L7.57888 8.05052C9.42178 6.31656 11.8387 5.37305 14.4305 5.37305H14.4481C17.0565 5.37305 19.5608 6.40115 21.4047 8.18542L14.5355 14.8031Z"
            fill="white" />
        <path
            d="M22.1525 10.2065L22.9179 9.46536L23.1083 9.76841C24.064 11.297 24.5694 13.0496 24.5695 14.8364C24.5528 20.2084 20.0475 24.5695 14.5001 24.5695H14.4824C8.93502 24.5695 4.41304 20.1742 4.43072 14.8032C4.43224 13.0143 4.94365 11.2607 5.90858 9.73521L6.08224 9.44922L7.00372 10.3414C6.83001 10.5931 6.67297 10.863 6.56896 11.1661C5.83898 13.1024 6.88201 15.2412 8.89964 15.9481C10.0998 16.3518 11.3697 16.1665 12.3608 15.5271L14.5001 17.6156L16.9524 15.2412C17.1791 15.3932 17.4392 15.511 17.7179 15.6117C19.6835 16.2854 21.8394 15.2915 22.5352 13.4055C22.9522 12.2948 22.7609 11.1329 22.1525 10.2065Z"
            fill="white" />
        <path
            d="M7.71826 12.6483C7.71783 12.2111 7.86418 11.7856 8.13533 11.4359L11.0224 14.2141C10.675 14.4829 10.2403 14.635 9.77021 14.635C8.63974 14.635 7.71826 13.7429 7.71826 12.6483Z"
            fill="white" />
        <path
            d="M18.2046 14.0449C18.5353 14.2634 18.918 14.3812 19.3528 14.3812C20.4833 14.3812 21.4047 13.4891 21.4047 12.3945C21.4047 11.9907 21.283 11.603 21.0574 11.2828L18.2046 14.0449Z"
            fill="white" />
    </g>
    <defs>
        <clipPath id="clip0_334_296">
            <rect width="29" height="29" fill="white" />
        </clipPath>
    </defs>
</svg>