<svg width="29" height="29" viewBox="0 0 29 29" fill="none" xmlns="http://www.w3.org/2000/svg">
    <path
        d="M14.5 29C22.5081 29 29 22.5081 29 14.5001C29 6.49188 22.5081 0 14.5 0C6.49188 0 0 6.49188 0 14.5001C0 22.5081 6.49188 29 14.5 29Z"
        fill="#FF0420" />
    <path fill-rule="evenodd" clip-rule="evenodd"
        d="M8.15071 17.7441C8.70211 18.1504 9.40948 18.3536 10.2729 18.3536C11.3176 18.3536 12.1521 18.1105 12.776 17.6243C13.3999 17.131 13.8389 16.3874 14.0928 15.3933C14.2452 14.7839 14.3758 14.1563 14.4846 13.5106C14.5209 13.2784 14.5391 13.0861 14.5391 12.9338C14.5391 12.4259 14.4121 11.9906 14.1581 11.6279C13.9042 11.2578 13.5559 10.9821 13.1134 10.8007C12.6708 10.6121 12.1701 10.5178 11.6116 10.5178C9.55826 10.5178 8.28492 11.5154 7.79158 13.5106C7.61746 14.2434 7.48324 14.871 7.38888 15.3933C7.35263 15.6255 7.33447 15.8215 7.33447 15.981C7.33447 16.7429 7.60656 17.3305 8.15071 17.7441ZM11.4591 16.4272C11.1762 16.6667 10.8316 16.7864 10.4252 16.7864C9.7288 16.7864 9.38049 16.4526 9.38049 15.7851C9.38049 15.6255 9.39498 15.4732 9.42405 15.328C9.55461 14.6243 9.6852 14.0294 9.8158 13.5433C9.93919 13.0499 10.1424 12.6835 10.4252 12.444C10.7155 12.2046 11.0637 12.0849 11.4701 12.0849C12.1593 12.0849 12.5039 12.415 12.5039 13.0752C12.5039 13.2349 12.4894 13.3909 12.4604 13.5433C12.3733 14.0511 12.2464 14.6461 12.0795 15.328C11.9561 15.8215 11.7494 16.1879 11.4591 16.4272ZM14.8548 18.1682C14.8983 18.219 14.96 18.2444 15.0399 18.2444H16.52C16.5924 18.2444 16.6614 18.219 16.7267 18.1682C16.7919 18.1174 16.8319 18.0521 16.8464 17.9723L17.347 15.5889H18.8163C19.7666 15.5889 20.5139 15.3894 21.0582 14.9904C21.6096 14.5914 21.9759 13.9747 22.1573 13.1403C22.2009 12.9444 22.2226 12.7557 22.2226 12.5744C22.2226 11.9431 21.9759 11.4607 21.4825 11.1269C20.9964 10.7932 20.3507 10.6263 19.5454 10.6263H16.6505C16.578 10.6263 16.5091 10.6517 16.4437 10.7025C16.3784 10.7533 16.3385 10.8186 16.324 10.8983L14.8222 17.9723C14.8076 18.0449 14.8185 18.1102 14.8548 18.1682ZM19.6869 13.8368C19.4619 14.0037 19.1971 14.0871 18.8924 14.0871H17.6409L18.0544 12.1391H19.3604C19.6579 12.1391 19.8683 12.197 19.9916 12.3132C20.1149 12.422 20.1766 12.5816 20.1766 12.792C20.1766 12.8863 20.1658 12.9951 20.144 13.1185C20.0714 13.4305 19.919 13.6699 19.6869 13.8368Z"
        fill="white" />
</svg>