<svg width="29" height="29" viewBox="0 0 29 29" fill="none" xmlns="http://www.w3.org/2000/svg">
    <path
        d="M14.5 29C22.5081 29 29 22.5081 29 14.5C29 6.49187 22.5081 0 14.5 0C6.49187 0 0 6.49187 0 14.5C0 22.5081 6.49187 29 14.5 29Z"
        fill="#8247E5" />
    <path fill-rule="evenodd" clip-rule="evenodd"
        d="M9.6807 6.40486C9.97268 6.24265 10.3276 6.24265 10.6196 6.40486L14.9696 8.82152C15.2765 8.992 15.4668 9.31549 15.4668 9.66654V11.2382L13.5335 12.3249V10.2353L10.1502 8.35569L6.76683 10.2353V13.9311L10.1502 15.8107L18.3807 11.2382C18.6727 11.076 19.0276 11.076 19.3196 11.2382L23.6696 13.6549C23.9765 13.8253 24.1668 14.1488 24.1668 14.4999V19.3332C24.1668 19.6842 23.9765 20.0077 23.6696 20.1782L19.3196 22.5949C19.0276 22.7571 18.6727 22.7571 18.3807 22.5949L14.0307 20.1782C13.7238 20.0077 13.5335 19.6842 13.5335 19.3332V17.7615L15.4668 16.6749V18.7644L18.8502 20.6441L22.2335 18.7644V15.0687L18.8502 13.189L10.6196 17.7615C10.3276 17.9238 9.97268 17.9238 9.6807 17.7615L5.3307 15.3449C5.02383 15.1744 4.8335 14.8509 4.8335 14.4999V9.66654C4.8335 9.31549 5.02383 8.992 5.3307 8.82152L9.6807 6.40486Z"
        fill="white" />
</svg>